<?xml version="1.0" encoding="UTF-8" standalone="no"?>
<!-- Created with Inkscape (http://www.inkscape.org/) -->

<svg
   version="1.1"
   id="svg2"
   width="534.71997"
   height="90.239998"
   viewBox="0 0 534.71997 90.239998"
   xmlns="http://www.w3.org/2000/svg"
   xmlns:svg="http://www.w3.org/2000/svg">
  <defs
     id="defs6">
    <clipPath
       clipPathUnits="userSpaceOnUse"
       id="clipPath16">
      <path
         d="m 72,610.79998 h 48.11999 v 115.55 H 72 Z"
         id="path14" />
    </clipPath>
    <clipPath
       clipPathUnits="userSpaceOnUse"
       id="clipPath26">
      <path
         d="m 138.35,610.79998 h 336.6 v 115.55 h -336.6 z"
         id="path24" />
    </clipPath>
  </defs>
  <g
     id="g8"
     transform="matrix(1.3333333,0,0,-1.3333333,-94.08,932.16)">
    <g
       id="g10">
      <g
         id="g12"
         clip-path="url(#clipPath16)">
        <path
           d="m 105.96,657.71002 c -2.77,0 -5.04001,0.47998 -6.83999,1.67999 -1.80001,1.08997 -3.48002,2.15997 -5.05001,3.36999 -1.43001,1.20002 -2.75,2.03998 -3.94999,2.75 -1.09002,0.71998 -2.52001,1.08997 -4.09002,1.08997 -1.79998,0 -3.11,-0.72998 -4.19999,-2.04999 -0.95999,-1.42999 -1.55001,-3.58996 -1.55001,-6.58996 H 73.55 c 0.25,4.67999 1.45,8.26996 3.61,11.03998 2.03,2.64001 5.03,3.96002 8.64,3.96002 2.75,0 4.91,-0.48004 6.83999,-1.57001 1.80001,-1.07001 3.59002,-2.16003 5.16001,-3.47003 1.43001,-1.08997 2.75,-2.04999 3.83999,-2.76001 C 102.83,664.54998 104.16,664.19 105.83,664.19 c 1.80999,0 3.13,0.72998 4.08999,2.03998 1.08001,1.32 1.56002,3.60003 1.68001,6.60003 h 6.59 c -0.12,-4.67004 -1.31999,-8.39001 -3.48,-11.16003 -2.04001,-2.63996 -5.04001,-3.95996 -8.75,-3.95996 z"
           style="fill:#33cccc;fill-opacity:1;fill-rule:nonzero;stroke:none"
           id="path18" />
      </g>
    </g>
    <g
       id="g20">
      <g
         id="g22"
         clip-path="url(#clipPath26)">
        <path
           d="m 146.02998,635.51 v 59.15998 h 36.73001 V 688.07 H 153.96 v -18.84002 h 26.15999 V 662.76 H 153.96 V 635.51 Z M 202.44,634.79998 c -2.41002,0 -4.68001,0.48004 -6.73,1.43 -2.04002,0.84002 -3.59001,2.28002 -4.91,4.09002 -1.2,1.79999 -1.8,4.07001 -1.8,6.83997 0,3.84003 1.19,6.71002 3.6,8.76001 2.4,1.91003 5.87999,3.23999 10.2,3.95001 4.42999,0.72998 9.47998,1.20001 15.36,1.20001 v 3 c 0,3.72998 -0.84,6.25 -2.65001,7.57001 -1.79999,1.32001 -4.06999,2.02997 -6.95999,2.02997 -2.88002,0 -5.39,-0.70996 -7.43001,-2.27997 -2.04999,-1.42999 -3,-3.84003 -3,-7.07001 h -7.09001 c 0,3.59998 0.73001,6.34998 2.29002,8.51001 1.43999,2.16999 3.48,3.83997 6.23,4.81 2.64,0.95996 5.64,1.42999 9,1.42999 2.28,0 4.31999,-0.10998 6.36998,-0.59002 2.04002,-0.35999 3.84001,-1.08997 5.40002,-2.15998 1.54999,-1.20001 2.87,-2.65002 3.84,-4.56 0.84,-2.04998 1.31999,-4.57 1.31999,-7.57 v -28.68 h -6.84001 l -0.25,6.60999 C 216.35,639.83001 214.07,638.15997 211.55,636.71002 c -2.63002,-1.32001 -5.63002,-1.91004 -9.11,-1.91004 z m 1.91,5.64002 c 3,0 5.65,0.59002 7.92998,2.03998 2.39,1.32 4.32002,3.11999 5.88002,5.28002 v 8.63001 c -7.81,-0.10999 -13.33,-0.84003 -16.68001,-2.16003 C 198,652.79998 196.32,650.51 196.32,647.39001 c 0,-2.16003 0.70998,-3.84003 2.03,-5.04004 1.45,-1.31995 3.36,-1.90997 6,-1.90997 z m 34.81,-4.93 v 42.83997 h 7.31999 V 635.51 Z m 3.70999,50.88001 c -1.42999,0 -2.51999,0.36999 -3.36,1.20996 -0.84001,0.84003 -1.18999,1.79004 -1.18999,3.11005 0,1.20996 0.34998,2.15997 1.18999,3 0.84001,0.83996 1.93001,1.20996 3.36,1.20996 1.32001,0 2.40999,-0.37 3.36,-1.20996 0.84001,-0.84003 1.21001,-1.79004 1.21001,-3 0,-1.32001 -0.37,-2.27002 -1.21001,-3.11005 -0.95001,-0.83997 -2.03999,-1.20996 -3.36,-1.20996 z M 260.64001,635.51 v 42.83997 H 267.6 l 0.22998,-7.31995 c 1.20001,2.28998 2.88001,4.08997 5.04001,5.63996 2.16,1.45001 4.92999,2.16003 8.29001,2.29004 H 282 v -6.84003 h -0.97001 c -2.16,0 -3.95999,-0.25 -5.63998,-0.83997 -1.56003,-0.48004 -3,-1.32 -4.20001,-2.28002 -1.19,-0.96998 -2.26999,-2.03998 -3.23001,-3.35999 V 635.51 Z M 309.6,634.79998 c -4.20999,0 -8.05002,0.59003 -11.41,1.91004 -3.36002,1.32 -6.12,3.25 -8.16001,6 -1.91,2.76996 -3,6.35998 -3,10.79998 h 7.93 c 0,-3.11999 0.71002,-5.64001 2.16,-7.44 1.32001,-1.78998 3.11002,-3 5.39001,-3.72003 2.16001,-0.70996 4.68,-1.06995 7.31998,-1.06995 2.52002,0 4.81003,0.35999 6.84003,1.06995 2.15997,0.72003 3.72,1.93005 5.03998,3.36005 1.21002,1.57 1.80001,3.47998 1.80001,5.88995 0,2.04004 -0.48001,3.72003 -1.44,5.04004 -0.95001,1.32001 -2.63,2.39001 -4.79001,3.47998 C 315,661.07 312,662.03002 308.27999,663 c -4.45001,1.19 -8.16,2.39001 -11.04998,3.83001 -2.88001,1.45001 -4.91001,3.13001 -6.36002,5.16999 -1.42999,2.15997 -2.04001,4.79998 -2.04001,7.91998 0,3.36004 0.72,6.23999 2.29001,8.52002 1.67999,2.27002 3.84,4.07 6.84,5.27002 3,1.20996 6.48001,1.79998 10.55001,1.79998 3.84,0 7.31998,-0.59002 10.44999,-1.79998 3.11001,-1.32001 5.64001,-3.11005 7.55001,-5.64002 1.93,-2.40002 2.76999,-5.52002 2.76999,-9.10998 h -7.79998 c 0,3.35998 -1.20002,5.86999 -3.72001,7.54998 -2.52999,1.68 -5.52999,2.52002 -9.25,2.52002 -3.71002,0 -6.71002,-0.71002 -8.75,-2.16003 -2.16,-1.54999 -3.11999,-3.71002 -3.11999,-6.58997 0,-1.80004 0.35999,-3.25 1.31998,-4.45001 0.96002,-1.07001 2.52002,-2.16003 4.68002,-3.11999 2.15997,-0.95002 5.28,-1.91004 9.22998,-2.88001 4.57001,-1.32001 8.29001,-2.64001 11.16,-3.96002 2.76999,-1.42999 4.93,-3.22998 6.25,-5.39001 C 330.6,658.19 331.32,655.32 331.32,651.83001 c 0,-3.83001 -0.97,-7.07001 -2.88,-9.48004 -1.93,-2.51996 -4.44,-4.42999 -7.79999,-5.63995 -3.25,-1.32001 -6.97,-1.91004 -11.04001,-1.91004 z m 51.22998,0 c -4.66998,0 -8.50998,0.96002 -11.50998,2.87 -3,1.92999 -5.16,4.56 -6.61001,7.92999 -1.43,3.36005 -2.16001,7.20001 -2.16001,11.40003 0,4.32 0.73001,8.15997 2.16001,11.51 1.32,3.35999 3.48001,5.88001 6.36001,7.81 2.75998,1.79999 6.47998,2.75 10.79999,2.75 5.89001,0 10.45001,-1.67999 13.67999,-5.27002 3.37003,-3.47998 5.05002,-8.51996 5.05002,-15.13 0,-0.47998 0,-0.95996 -0.11999,-1.54999 0,-0.60999 0,-1.08997 -0.13001,-1.32001 H 347.86999 C 348,653.03002 348.35,650.51 349.32,648.11999 c 0.84,-2.28998 2.16001,-4.20001 4.07001,-5.52002 1.79999,-1.44 4.31998,-2.15997 7.43997,-2.15997 3.24002,0 5.77002,0.71997 7.68002,2.27002 1.81,1.57 2.76999,3.83996 2.88001,6.72998 H 378.6 c -0.11999,-3 -0.84,-5.64002 -2.28,-7.79999 -1.56,-2.16003 -3.61001,-3.84003 -6.25,-5.04004 -2.63,-1.20996 -5.63,-1.79999 -9.24002,-1.79999 z M 348,661.19 h 23.27999 c 0,3.96997 -1.08999,6.96997 -3.11999,9.13 -1.92999,2.15998 -4.67999,3.12 -8.29001,3.12 -3.59,0 -6.35999,-0.96002 -8.38998,-3.12 -2.04001,-2.03998 -3.25,-5.16003 -3.48001,-9.13 z m 53.39001,-26.39002 c -2.39001,0 -4.68002,0.48004 -6.72,1.43 -2.03,0.84002 -3.60001,2.28002 -4.91001,4.09002 -1.21002,1.79999 -1.80001,4.07001 -1.80001,6.83997 0,3.84003 1.20001,6.71002 3.58999,8.76001 2.41001,1.91003 5.89002,3.23999 10.21002,3.95001 4.43,0.72998 9.47001,1.20001 15.35999,1.20001 v 3 c 0,3.72998 -0.84,6.25 -2.63998,7.57001 -1.81,1.32001 -4.09,2.02997 -6.97001,2.02997 -2.86999,0 -5.39001,-0.70996 -7.44,-2.27997 -2.04001,-1.42999 -3,-3.84003 -3,-7.07001 H 390 c 0,3.59998 0.70999,6.34998 2.27999,8.51001 1.43,2.16999 3.48001,3.83997 6.23001,4.81 2.65,0.95996 5.65,1.42999 9,1.42999 2.28998,0 4.31998,-0.10998 6.35999,-0.59002 2.05002,-0.35999 3.84,-1.08997 5.41,-2.15998 1.54999,-1.20001 2.88001,-2.65002 3.84,-4.56 0.84,-2.04998 1.32001,-4.57 1.32001,-7.57 v -28.68 h -6.84 l -0.25,6.60999 c -2.03,-2.28998 -4.32001,-3.96002 -6.84,-5.40997 -2.64001,-1.32001 -5.64001,-1.91004 -9.11999,-1.91004 z M 403.32,640.44 c 3,0 5.63999,0.59002 7.91001,2.03998 2.41,1.32 4.31997,3.11999 5.88998,5.28002 v 8.63001 c -7.79999,-0.10999 -13.32001,-0.84003 -16.67999,-2.16003 -3.48001,-1.43 -5.16001,-3.71998 -5.16001,-6.83997 0,-2.16003 0.72001,-3.84003 2.04001,-5.04004 1.44,-1.31995 3.35001,-1.90997 6,-1.90997 z m 50.03,-5.64002 c -2.39001,0 -4.67999,0.23004 -6.84,0.71002 -2.16,0.60999 -4.07,1.45002 -5.75,2.52002 -1.57,1.19996 -2.89001,2.63996 -3.83999,4.56995 C 436.07,644.39001 435.6,646.66998 435.6,649.32 h 7.07001 c 0,-3.35998 0.97,-5.65002 3.12997,-7.09002 2.03,-1.31 4.55002,-2.03998 7.68003,-2.03998 2.75,0 5.02999,0.60998 6.83999,1.67999 1.79999,0.96002 2.75,2.77002 2.75,5.28998 0,2.03003 -0.83999,3.60003 -2.52002,4.67004 -1.54998,0.96997 -4.42999,2.03998 -8.51999,3 -3.35998,0.71997 -6.10998,1.67999 -8.38998,2.76996 -2.29001,0.95001 -4.09003,2.27002 -5.16,3.95001 -1.20002,1.57001 -1.68003,3.60999 -1.68003,6 0,1.93 0.36002,3.60999 1.20002,5.04999 0.70999,1.43005 1.92001,2.63001 3.35,3.59003 1.44998,0.96997 3.13001,1.67999 5.16,2.15997 1.93,0.48004 4.09,0.72003 6.35999,0.72003 2.16,0 4.32001,-0.23999 6.25,-0.72003 2.04001,-0.58997 3.70999,-1.42999 5.27002,-2.51996 C 465.82998,674.76 467.02999,673.32 468,671.51 c 0.82998,-1.67999 1.32,-3.84002 1.32,-6.22998 h -7.20001 c 0,3 -0.84,5.15998 -2.63998,6.35999 -1.81,1.32001 -4.09,1.90997 -6.61002,1.90997 -2.63998,0 -4.79999,-0.47998 -6.47998,-1.42999 C 444.82998,671.28002 444,669.71002 444,667.79998 c 0,-1.20001 0.35,-2.15997 1.07,-2.88 0.72998,-0.84998 1.93,-1.57001 3.72998,-2.15998 1.68003,-0.60003 3.96002,-1.32 6.96002,-2.04998 3.10999,-0.71002 5.88001,-1.68 8.03998,-2.64002 2.16001,-1.07 3.71002,-2.52002 4.80002,-4.07 1.19998,-1.68 1.67999,-3.84003 1.67999,-6.35999 0,-2.29004 -0.35998,-4.20001 -1.32,-5.77002 -0.84,-1.67999 -2.03998,-3 -3.60999,-4.07001 C 463.92001,636.83001 462.11999,636 459.95999,635.51 457.92001,635.03002 455.76,634.79998 453.35,634.79998 Z"
           style="fill:#000000;fill-opacity:1;fill-rule:nonzero;stroke:none"
           id="path28" />
      </g>
    </g>
  </g>
</svg>
